<?xml version="1.0" encoding="iso-8859-1"?>
<!-- Uploaded to: SVG Repo, www.svgrepo.com, Generator: SVG Repo Mixer Tools -->
<svg fill="#CA9B5B" height="800px" width="800px" version="1.1" id="Layer_1" xmlns="http://www.w3.org/2000/svg" xmlns:xlink="http://www.w3.org/1999/xlink" 
	 viewBox="0 0 511.999 511.999" xml:space="preserve">
<g>
	<g>
		<path d="M500.244,495.159H462.57V280.13c18.304-0.546,33.028-15.593,33.028-34.026v-38.36c0-0.031-0.004-0.061-0.004-0.092
			c-0.001-0.161-0.013-0.32-0.025-0.479c-0.008-0.119-0.012-0.24-0.025-0.358c-0.016-0.147-0.043-0.294-0.067-0.44
			c-0.021-0.128-0.037-0.256-0.064-0.382c-0.028-0.133-0.066-0.262-0.101-0.393c-0.035-0.135-0.067-0.272-0.109-0.404
			c-0.037-0.119-0.085-0.235-0.129-0.352c-0.052-0.14-0.1-0.283-0.158-0.42c-0.046-0.107-0.101-0.21-0.152-0.315
			c-0.068-0.143-0.135-0.287-0.211-0.426c-0.054-0.096-0.116-0.19-0.174-0.285c-0.086-0.143-0.171-0.285-0.265-0.422
			c-0.061-0.088-0.128-0.171-0.192-0.257c-0.103-0.139-0.207-0.277-0.319-0.409c-0.019-0.022-0.034-0.046-0.053-0.067
			l-57.518-66.625c3.113-2.657,5.097-6.601,5.097-11.005v-17.297c0-7.982-6.494-14.477-14.477-14.477H319.974l-0.007-13.008
			c16.028-0.539,32.057-3.846,47.766-9.884c1.659-0.542,3.143-1.599,4.209-3.073c1.968-2.727,2.126-6.363,0.4-9.25
			c-0.683-1.142-1.888-2.55-3.932-3.415l0.003-0.009c-0.533-0.228-1.083-0.398-1.643-0.513c-0.02-0.004-0.039-0.009-0.06-0.013
			c-9.54-2.081-22.81-5.963-31.443-10.608c-10.713-5.765-15.68-13.464-20.484-20.91c-5.537-8.581-11.812-18.305-25.931-21.279
			c-5.12-1.081-18.198-2.678-29.013,5.806c-1.445,1.134-2.717,2.352-3.844,3.621c-1.126-1.269-2.398-2.487-3.844-3.621
			c-10.816-8.485-23.896-6.888-29.015-5.805c-14.118,2.975-20.392,12.7-25.928,21.279c-4.804,7.446-9.772,15.144-20.484,20.909
			c-8.631,4.647-21.902,8.527-31.444,10.608c-0.021,0.004-0.04,0.01-0.062,0.015c-0.558,0.113-1.108,0.284-1.64,0.512l0.003,0.009
			c-2.043,0.866-3.249,2.273-3.932,3.415c-1.726,2.886-1.567,6.524,0.4,9.25c1.065,1.475,2.551,2.532,4.21,3.074
			c15.722,6.041,31.759,9.348,47.798,9.885l-0.123,13.007H85.345c-7.981,0-14.476,6.494-14.476,14.477v17.296
			c0,5.031,2.583,9.466,6.49,12.062L19.488,202.17c-0.028,0.031-0.05,0.066-0.079,0.099c-0.108,0.126-0.209,0.256-0.309,0.387
			c-0.071,0.092-0.143,0.184-0.208,0.278c-0.089,0.127-0.171,0.259-0.253,0.391c-0.065,0.106-0.132,0.209-0.192,0.317
			c-0.071,0.127-0.134,0.257-0.199,0.387c-0.058,0.117-0.118,0.234-0.169,0.353c-0.056,0.128-0.103,0.258-0.152,0.388
			c-0.047,0.127-0.098,0.253-0.139,0.381c-0.042,0.128-0.075,0.259-0.11,0.391c-0.036,0.135-0.075,0.269-0.104,0.406
			c-0.027,0.126-0.047,0.255-0.068,0.383c-0.025,0.147-0.049,0.292-0.067,0.44c-0.013,0.121-0.021,0.245-0.03,0.367
			c-0.011,0.157-0.021,0.315-0.024,0.473c-0.001,0.045-0.007,0.089-0.007,0.134v38.36c0,18.777,15.275,34.052,34.053,34.052
			c10.214,0,19.385-4.527,25.632-11.671c6.247,7.146,15.418,11.671,25.632,11.671c10.215,0,19.386-4.527,25.633-11.671
			c6.247,7.146,15.418,11.671,25.632,11.671c10.215,0,19.386-4.527,25.633-11.671c6.247,7.146,15.418,11.671,25.632,11.671
			c10.215,0,19.386-4.527,25.633-11.671c6.247,7.146,15.418,11.671,25.632,11.671c10.215,0,19.386-4.527,25.633-11.671
			c6.247,7.146,15.418,11.671,25.632,11.671c10.215,0,19.386-4.527,25.633-11.671c6.247,7.146,15.418,11.671,25.632,11.671
			c10.215,0,19.386-4.527,25.633-11.671c6.247,7.146,15.418,11.671,25.632,11.671c10.215,0,19.386-4.527,25.633-11.671
			c2.757,3.154,6.081,5.794,9.817,7.762v218.913h-40.788V335.029c0-16.704-13.589-30.293-30.293-30.293h-62.209
			c-16.704,0-30.293,13.589-30.293,30.293v160.131H66.269V313.156c0-4.651-3.769-8.42-8.42-8.42c-4.651,0-8.42,3.769-8.42,8.42
			v182.004H11.754c-4.651,0-8.42,3.769-8.42,8.42c0,4.651,3.769,8.42,8.42,8.42h46.095h232.718h105.956h57.628h46.095
			c4.651,0,8.42-3.769,8.42-8.42C508.665,498.928,504.895,495.159,500.244,495.159z M388.102,495.159h-89.115V335.029
			c0-7.417,6.035-13.453,13.453-13.453h62.209c7.417,0,13.453,6.035,13.453,13.453V495.159z M270.236,19.931
			c3.142-2.465,7.03-3.088,10.159-3.088c2.23,0,4.074,0.317,4.986,0.51c0.001,0,0.002,0,0.003,0
			c6.939,1.463,9.846,5.554,15.251,13.931c5.402,8.371,12.124,18.788,26.653,26.608c2.409,1.296,4.999,2.499,7.649,3.603
			c-7.312,1.177-14.646,1.691-21.949,1.552c-0.47-0.082-0.953-0.133-1.447-0.133c-0.001,0-0.003,0-0.005,0
			c-0.357,0-0.706,0.029-1.051,0.073c-10.078-0.309-19.642-0.811-29.258-6.799c-13.697-8.529-16.701-16.869-16.809-22.366
			C264.403,32.881,264.408,24.503,270.236,19.931z M256,56.391c3.722,4.715,8.975,9.511,16.328,14.091
			c10.769,6.707,21.188,8.435,30.8,9.039l0.008,13.317h-94.354l0.125-13.319c9.602-0.605,20.009-2.337,30.764-9.036
			C247.025,65.902,252.278,61.106,256,56.391z M177.06,61.496c2.652-1.105,5.24-2.307,7.65-3.604
			c14.53-7.82,21.252-18.238,26.652-26.607c5.406-8.378,8.312-12.469,15.253-13.932c0.001,0,0.002,0,0.003-0.001
			c2.191-0.461,9.762-1.645,15.144,2.58c5.828,4.57,5.833,12.95,5.815,13.891c-0.108,5.497-3.111,13.836-16.809,22.366
			c-9.997,6.226-19.935,6.523-30.457,6.836C192.581,63.26,184.807,62.743,177.06,61.496z M68.642,246.104
			c0,9.49-7.722,17.212-17.212,17.212c-9.491,0-17.213-7.722-17.213-17.212v-29.94h34.424V246.104z M72.64,199.324H44.472
			l53.225-60.238h16.476L72.64,199.324z M119.906,246.104c0,9.49-7.722,17.212-17.213,17.212c-9.49,0-17.212-7.722-17.212-17.212
			v-29.94h34.424V246.104z M123.101,199.324H93.095l41.533-60.238h18.314L123.101,199.324z M171.171,246.104
			c0,9.49-7.722,17.212-17.213,17.212c-9.49,0-17.212-7.722-17.212-17.212v-29.94h34.424V246.104z M173.333,199.324h-31.439
			l29.841-60.238h19.748L173.333,199.324z M222.435,246.104c0,9.49-7.722,17.212-17.213,17.212c-9.49,0-17.212-7.722-17.212-17.212
			v-29.94h34.424V246.104z M223.291,199.324h-32.369l18.149-60.238h20.676L223.291,199.324z M273.7,246.104
			c0,9.49-7.721,17.212-17.213,17.212c-9.49,0-17.212-7.722-17.212-17.212v-29.94H273.7V246.104z M240.227,199.324l6.456-60.238
			h21.019l5.235,60.238H240.227z M202.771,122.245c-0.019,0-0.038,0-0.057,0h-72.411c-0.008,0-0.016,0-0.024,0H87.709v-12.567H200.2
			c0.027,0,0.055,0,0.082,0H424.29v12.567h-39.905c-0.017,0-0.035,0-0.052,0H202.771z M284.605,139.086h20.74l16.928,60.238H289.84
			L284.605,139.086z M324.964,246.104c0.001,9.49-7.721,17.212-17.213,17.212c-9.49,0-17.212-7.722-17.212-17.212v-29.94h34.424
			V246.104z M322.838,139.086h19.869l28.619,60.238h-31.56L322.838,139.086z M376.23,246.104c0,9.49-7.722,17.212-17.213,17.212
			c-9.49,0-17.212-7.722-17.212-17.212v-29.94h34.424V246.104z M361.352,139.086h18.484l40.312,60.238h-30.176L361.352,139.086z
			 M427.494,246.104c0,9.49-7.722,17.212-17.213,17.212c-9.49,0-17.212-7.722-17.212-17.212v-29.94h34.424V246.104z
			 M400.099,139.086h16.683l52.004,60.238H440.41L400.099,139.086z M457.22,262.743c-0.432-0.17-0.88-0.31-1.344-0.408
			c-6.709-2.351-11.542-8.731-11.542-16.233v-29.939h34.424v29.94c0,9.49-7.722,17.212-17.213,17.212
			C460.049,263.316,458.605,263.105,457.22,262.743z"/>
	</g>
</g>
<g>
	<g>
		<path d="M230.175,304.736H116.051c-13.976,0-25.346,11.37-25.346,25.346v114.124c0,13.976,11.37,25.348,25.346,25.348h114.124v0
			c13.976,0,25.348-11.371,25.348-25.348V330.082C255.523,316.106,244.151,304.736,230.175,304.736z M164.692,452.713H116.05
			c-4.689,0-8.506-3.816-8.506-8.508v-48.642h57.148V452.713z M164.693,378.724h-57.149v-48.642c0-4.69,3.817-8.506,8.508-8.506
			h48.642V378.724z M238.682,444.206c0,4.692-3.816,8.508-8.508,8.508h-48.642v-57.149h57.149V444.206z M238.682,378.724h-57.149
			v-57.148h48.642c4.692,0,8.508,3.816,8.508,8.506V378.724z"/>
	</g>
</g>
<g>
	<g>
		<circle cx="314.179" cy="414.466" r="8.42"/>
	</g>
</g>
</svg>