<?xml version="1.0" encoding="iso-8859-1"?>
<!-- Uploaded to: SVG Repo, www.svgrepo.com, Generator: SVG Repo Mixer Tools -->
<svg fill="#CA9B5B" height="800px" width="800px" version="1.1" id="Layer_1" xmlns="http://www.w3.org/2000/svg" xmlns:xlink="http://www.w3.org/1999/xlink" 
	 viewBox="0 0 511.999 511.999" xml:space="preserve">
<g>
	<g>
		<circle cx="182.976" cy="395.296" r="8.595"/>
	</g>
</g>
<g>
	<g>
		<circle cx="182.976" cy="274.583" r="8.595"/>
	</g>
</g>
<g>
	<g>
		<path d="M470.1,32.943c-4.258-2.796-9.591-3.261-14.266-1.239l-41.939,18.133L218.431,5.201
			c-5.435-1.633-11.023-2.91-16.742-3.783c-0.057-0.008-0.116-0.017-0.173-0.024C195.466,0.478,189.274,0,182.973,0
			C114.934,0,59.581,55.353,59.581,123.392s55.353,123.392,123.392,123.392c15.16,0,29.687-2.754,43.116-7.778v152.05
			c0,23.774-19.341,43.116-43.116,43.116c-23.775,0-43.116-19.341-43.116-43.116V265.98c0-4.747-3.848-8.595-8.595-8.595
			s-8.595,3.848-8.595,8.595v125.073c0,30.334,22.517,55.498,51.711,59.683v28.6c0,8.531-6.94,15.472-15.472,15.472h-43.012
			c-8.531,0-15.472-6.94-15.472-15.472V360.72c0-18.01-14.652-32.663-32.662-32.663c-18.01,0-32.662,14.652-32.662,32.663v62.46
			c0,4.747,3.848,8.595,8.595,8.595s8.595-3.848,8.595-8.595v-62.46c0-8.531,6.94-15.472,15.472-15.472
			c8.531,0,15.472,6.94,15.472,15.472v118.616c0,18.01,14.652,32.662,32.662,32.662h43.012c18.01,0,32.663-14.652,32.663-32.662
			v-28.6c29.195-4.185,51.711-29.349,51.711-59.683V231.007c37.616-21.163,63.086-61.467,63.086-107.615
			c0-35.044-14.685-66.722-38.224-89.205l137.992,31.511v104.136l-108.733,30.72c-4.568,1.29-7.226,6.041-5.934,10.608
			c1.07,3.788,4.517,6.261,8.266,6.261c0.774,0,1.56-0.105,2.341-0.327l112.049-31.656l41.714,18.035
			c1.927,0.833,3.963,1.243,5.993,1.243c2.895,0,5.77-0.838,8.275-2.483c4.256-2.798,6.798-7.509,6.798-12.603V45.546
			C476.899,40.452,474.358,35.741,470.1,32.943z M289.173,123.392c0,58.56-47.641,106.201-106.201,106.201
			S76.771,181.952,76.771,123.392c0-58.56,47.643-106.201,106.202-106.201c5.454,0,10.813,0.415,16.048,1.211l15.039,3.434
			C257.498,35.16,289.173,75.644,289.173,123.392z M459.708,186.421l-36.387-15.732V64.491l36.387-15.733V186.421z"/>
	</g>
</g>
<g>
	<g>
		<path d="M182.973,71.168c-28.797,0-52.224,23.428-52.224,52.224c0,28.797,23.428,52.224,52.224,52.224
			c28.797,0,52.224-23.428,52.224-52.224C235.197,94.595,211.77,71.168,182.973,71.168z M182.973,158.425
			c-19.318,0-35.034-15.716-35.034-35.034s15.716-35.034,35.034-35.034c19.318,0,35.034,15.716,35.034,35.034
			S202.291,158.425,182.973,158.425z"/>
	</g>
</g>
<g>
	<g>
		<circle cx="103.326" cy="98.079" r="8.595"/>
	</g>
</g>
<g>
	<g>
		<circle cx="98.169" cy="129.882" r="8.595"/>
	</g>
</g>
<g>
	<g>
		<circle cx="108.437" cy="158.43" r="8.595"/>
	</g>
</g>
</svg>